<mxfile host="app.diagrams.net" modified="2023-08-16T11:55:34.084Z" agent="Mozilla/5.0 (Windows NT 10.0; Win64; x64) AppleWebKit/537.36 (KHTML, like Gecko) Chrome/115.0.0.0 Safari/537.36 Edg/115.0.1901.203" etag="pzCgKOfmvdEirLTdu3OI" version="21.6.8" type="google" pages="3">
  <diagram name="Level 1" id="lCDnBwWhgWy_nWJCOhqR">
    <mxGraphModel grid="1" page="1" gridSize="10" guides="1" tooltips="1" connect="1" arrows="1" fold="1" pageScale="1" pageWidth="1200" pageHeight="1920" math="0" shadow="0">
      <root>
        <mxCell id="0" />
        <mxCell id="1" parent="0" />
        <UserObject label="Task Management&lt;br style=&quot;border-color: var(--border-color);&quot;&gt;System&lt;br&gt;[Software System]" treeRoot="1" id="wLKRBiPGjP5ruLZOqyEM-5">
          <mxCell style="whiteSpace=wrap;html=1;align=center;treeFolding=1;treeMoving=1;newEdgeStyle={&quot;edgeStyle&quot;:&quot;elbowEdgeStyle&quot;,&quot;startArrow&quot;:&quot;none&quot;,&quot;endArrow&quot;:&quot;none&quot;};" vertex="1" parent="1">
            <mxGeometry x="497" y="530" width="156" height="100" as="geometry" />
          </mxCell>
        </UserObject>
        <mxCell id="7YvGOWlu_iYXXsKmEmn--2" value="" style="endArrow=classic;html=1;rounded=0;exitX=0.5;exitY=1;exitDx=0;exitDy=0;" edge="1" parent="1" source="dUjn7oY3OfdmqEVlJoKJ-8" target="wLKRBiPGjP5ruLZOqyEM-5">
          <mxGeometry width="50" height="50" relative="1" as="geometry">
            <mxPoint x="547.9999999999998" y="480" as="sourcePoint" />
            <mxPoint x="434" y="650" as="targetPoint" />
          </mxGeometry>
        </mxCell>
        <mxCell id="dUjn7oY3OfdmqEVlJoKJ-8" value="&lt;br&gt;&lt;br&gt;Teams in businesses&lt;br&gt;[Person]" style="shape=actor;whiteSpace=wrap;html=1;" vertex="1" parent="1">
          <mxGeometry x="524.5" y="330" width="101" height="140" as="geometry" />
        </mxCell>
        <mxCell id="dZpiH2ZDGGgZqdhTLAj8-2" value="Level 1" style="shape=step;perimeter=stepPerimeter;whiteSpace=wrap;html=1;fixedSize=1;" vertex="1" parent="1">
          <mxGeometry x="470" y="210" width="210" height="60" as="geometry" />
        </mxCell>
      </root>
    </mxGraphModel>
  </diagram>
  <diagram id="Zui84ieXtNmoAPCRibvg" name="Level 2">
    <mxGraphModel grid="1" page="1" gridSize="10" guides="1" tooltips="1" connect="1" arrows="1" fold="1" pageScale="1" pageWidth="850" pageHeight="1100" math="0" shadow="0">
      <root>
        <mxCell id="0" />
        <mxCell id="1" parent="0" />
        <mxCell id="qW4eBMq7rO_1e_ASFbuw-1" style="edgeStyle=orthogonalEdgeStyle;rounded=0;orthogonalLoop=1;jettySize=auto;html=1;" edge="1" parent="1" source="qW4eBMq7rO_1e_ASFbuw-2" target="qW4eBMq7rO_1e_ASFbuw-3">
          <mxGeometry relative="1" as="geometry" />
        </mxCell>
        <mxCell id="qW4eBMq7rO_1e_ASFbuw-2" value="&lt;br&gt;&lt;br&gt;Teams in businesses&lt;br&gt;[Person]" style="shape=actor;whiteSpace=wrap;html=1;" vertex="1" parent="1">
          <mxGeometry x="394.5" y="140" width="101" height="140" as="geometry" />
        </mxCell>
        <UserObject label="Single-Page Application&lt;br&gt;[Container: JavaScript and React]&lt;br&gt;Provides users with task and project management via the web" treeRoot="1" id="qW4eBMq7rO_1e_ASFbuw-3">
          <mxCell style="whiteSpace=wrap;html=1;align=center;treeFolding=1;treeMoving=1;newEdgeStyle={&quot;edgeStyle&quot;:&quot;elbowEdgeStyle&quot;,&quot;startArrow&quot;:&quot;none&quot;,&quot;endArrow&quot;:&quot;none&quot;};" vertex="1" parent="1">
            <mxGeometry x="338" y="350" width="214" height="100" as="geometry" />
          </mxCell>
        </UserObject>
        <UserObject label="API application&lt;br&gt;[Container: C# and .Net]&amp;nbsp;&lt;br&gt;&lt;div&gt;Provides internet Task Management&lt;/div&gt;&lt;div&gt;System functionality via a JSON/HTTPS API&lt;/div&gt;" treeRoot="1" id="qW4eBMq7rO_1e_ASFbuw-4">
          <mxCell style="whiteSpace=wrap;html=1;align=center;treeFolding=1;treeMoving=1;newEdgeStyle={&quot;edgeStyle&quot;:&quot;elbowEdgeStyle&quot;,&quot;startArrow&quot;:&quot;none&quot;,&quot;endArrow&quot;:&quot;none&quot;};" vertex="1" parent="1">
            <mxGeometry x="338" y="500" width="213" height="100" as="geometry" />
          </mxCell>
        </UserObject>
        <mxCell id="qW4eBMq7rO_1e_ASFbuw-5" value="" style="endArrow=classic;html=1;rounded=0;entryX=0.5;entryY=0;entryDx=0;entryDy=0;exitX=0.5;exitY=1;exitDx=0;exitDy=0;" edge="1" parent="1" source="qW4eBMq7rO_1e_ASFbuw-3" target="qW4eBMq7rO_1e_ASFbuw-4">
          <mxGeometry width="50" height="50" relative="1" as="geometry">
            <mxPoint x="476" y="330" as="sourcePoint" />
            <mxPoint x="526" y="280" as="targetPoint" />
          </mxGeometry>
        </mxCell>
        <mxCell id="qW4eBMq7rO_1e_ASFbuw-6" value="Database&lt;br&gt;[Container: SQL Server]&lt;br&gt;Stores user registration information, hashes authentication credentials and access." style="shape=cylinder3;whiteSpace=wrap;html=1;boundedLbl=1;backgroundOutline=1;size=6;" vertex="1" parent="1">
          <mxGeometry x="70" y="493.75" width="170" height="112.5" as="geometry" />
        </mxCell>
        <mxCell id="qW4eBMq7rO_1e_ASFbuw-7" value="" style="endArrow=classic;html=1;rounded=0;exitX=0;exitY=0.5;exitDx=0;exitDy=0;entryX=1;entryY=0.5;entryDx=0;entryDy=0;entryPerimeter=0;" edge="1" parent="1" source="qW4eBMq7rO_1e_ASFbuw-4" target="qW4eBMq7rO_1e_ASFbuw-6">
          <mxGeometry width="50" height="50" relative="1" as="geometry">
            <mxPoint x="466" y="380" as="sourcePoint" />
            <mxPoint x="516" y="330" as="targetPoint" />
          </mxGeometry>
        </mxCell>
        <mxCell id="qW4eBMq7rO_1e_ASFbuw-8" value="Level 2" style="shape=step;perimeter=stepPerimeter;whiteSpace=wrap;html=1;fixedSize=1;" vertex="1" parent="1">
          <mxGeometry x="338" y="40" width="210" height="60" as="geometry" />
        </mxCell>
        <mxCell id="sz5BJGFRCxDOwp8Q7F19-1" value="Task Management System" style="swimlane;startSize=20;horizontal=1;containerType=tree;newEdgeStyle={&quot;edgeStyle&quot;:&quot;elbowEdgeStyle&quot;,&quot;startArrow&quot;:&quot;none&quot;,&quot;endArrow&quot;:&quot;none&quot;};" vertex="1" parent="1">
          <mxGeometry x="290" y="310" width="290" height="330" as="geometry" />
        </mxCell>
      </root>
    </mxGraphModel>
  </diagram>
  <diagram id="ebLwIYsnciqw4cD202DH" name="Level 3">
    <mxGraphModel grid="1" page="1" gridSize="10" guides="1" tooltips="1" connect="1" arrows="1" fold="1" pageScale="1" pageWidth="850" pageHeight="1100" math="0" shadow="0">
      <root>
        <mxCell id="0" />
        <mxCell id="1" parent="0" />
        <mxCell id="pqG15x5Y09YBqj7EZCSF-1" value="" style="edgeStyle=orthogonalEdgeStyle;rounded=0;orthogonalLoop=1;jettySize=auto;html=1;" edge="1" parent="1" source="pqG15x5Y09YBqj7EZCSF-2" target="pqG15x5Y09YBqj7EZCSF-3">
          <mxGeometry relative="1" as="geometry" />
        </mxCell>
        <mxCell id="pqG15x5Y09YBqj7EZCSF-2" value="Main Page&lt;br style=&quot;border-color: var(--border-color);&quot;&gt;&lt;br style=&quot;border-color: var(--border-color);&quot;&gt;Allows user to view task" style="rounded=0;whiteSpace=wrap;html=1;" vertex="1" parent="1">
          <mxGeometry x="-600" y="550" width="190" height="90" as="geometry" />
        </mxCell>
        <mxCell id="pqG15x5Y09YBqj7EZCSF-3" value="Modify task Modal&lt;br&gt;&lt;br&gt;&amp;nbsp;Allows users to modify already created tasks" style="rounded=0;whiteSpace=wrap;html=1;" vertex="1" parent="1">
          <mxGeometry x="-600" y="680" width="190" height="80" as="geometry" />
        </mxCell>
        <mxCell id="pqG15x5Y09YBqj7EZCSF-4" value="Create task page&lt;br&gt;&lt;br&gt;Allows users to create new task" style="rounded=0;whiteSpace=wrap;html=1;" vertex="1" parent="1">
          <mxGeometry x="-370" y="550" width="190" height="90" as="geometry" />
        </mxCell>
        <mxCell id="pqG15x5Y09YBqj7EZCSF-5" value="" style="endArrow=classic;html=1;rounded=0;entryX=0.5;entryY=0;entryDx=0;entryDy=0;" edge="1" parent="1" source="pqG15x5Y09YBqj7EZCSF-6" target="pqG15x5Y09YBqj7EZCSF-2">
          <mxGeometry width="50" height="50" relative="1" as="geometry">
            <mxPoint x="-740" y="580" as="sourcePoint" />
            <mxPoint x="-690" y="530" as="targetPoint" />
          </mxGeometry>
        </mxCell>
        <mxCell id="pqG15x5Y09YBqj7EZCSF-6" value="Login&lt;br style=&quot;border-color: var(--border-color);&quot;&gt;&lt;br style=&quot;border-color: var(--border-color);&quot;&gt;Request users to input valid credentials in order to access" style="rounded=0;whiteSpace=wrap;html=1;" vertex="1" parent="1">
          <mxGeometry x="-599" y="400" width="190" height="90" as="geometry" />
        </mxCell>
        <mxCell id="pqG15x5Y09YBqj7EZCSF-7" value="" style="endArrow=classic;html=1;rounded=0;exitX=1;exitY=0.5;exitDx=0;exitDy=0;entryX=0;entryY=0.5;entryDx=0;entryDy=0;" edge="1" parent="1" source="pqG15x5Y09YBqj7EZCSF-2" target="pqG15x5Y09YBqj7EZCSF-4">
          <mxGeometry width="50" height="50" relative="1" as="geometry">
            <mxPoint x="-740" y="580" as="sourcePoint" />
            <mxPoint x="-690" y="530" as="targetPoint" />
          </mxGeometry>
        </mxCell>
        <mxCell id="pqG15x5Y09YBqj7EZCSF-8" value="Single-Page Application" style="swimlane;startSize=20;horizontal=1;containerType=tree;newEdgeStyle={&quot;edgeStyle&quot;:&quot;elbowEdgeStyle&quot;,&quot;startArrow&quot;:&quot;none&quot;,&quot;endArrow&quot;:&quot;none&quot;};" vertex="1" parent="1">
          <mxGeometry x="-650" y="360" width="500" height="450" as="geometry" />
        </mxCell>
        <UserObject label="API application&lt;br&gt;[Container: C# and .Net]&amp;nbsp;&lt;br&gt;&lt;div&gt;Provides internet Task Management&lt;/div&gt;&lt;div&gt;System functionality via a JSON/HTTPS API&lt;/div&gt;" treeRoot="1" id="pqG15x5Y09YBqj7EZCSF-9">
          <mxCell style="whiteSpace=wrap;html=1;align=center;treeFolding=1;treeMoving=1;newEdgeStyle={&quot;edgeStyle&quot;:&quot;elbowEdgeStyle&quot;,&quot;startArrow&quot;:&quot;none&quot;,&quot;endArrow&quot;:&quot;none&quot;};" vertex="1" parent="1">
            <mxGeometry x="-506.5" y="860" width="213" height="100" as="geometry" />
          </mxCell>
        </UserObject>
        <mxCell id="pqG15x5Y09YBqj7EZCSF-10" value="" style="endArrow=classic;html=1;rounded=0;exitX=0.5;exitY=1;exitDx=0;exitDy=0;entryX=0.5;entryY=0;entryDx=0;entryDy=0;" edge="1" parent="1" source="pqG15x5Y09YBqj7EZCSF-8" target="pqG15x5Y09YBqj7EZCSF-9">
          <mxGeometry width="50" height="50" relative="1" as="geometry">
            <mxPoint x="-690" y="670" as="sourcePoint" />
            <mxPoint x="-640" y="620" as="targetPoint" />
          </mxGeometry>
        </mxCell>
        <mxCell id="pqG15x5Y09YBqj7EZCSF-11" value="Database&lt;br&gt;[Container: SQL Server]&lt;br&gt;Stores user registration information, hashes authentication credentials and access." style="shape=cylinder3;whiteSpace=wrap;html=1;boundedLbl=1;backgroundOutline=1;size=6;" vertex="1" parent="1">
          <mxGeometry x="-780" y="853.75" width="170" height="112.5" as="geometry" />
        </mxCell>
        <mxCell id="pqG15x5Y09YBqj7EZCSF-12" value="" style="endArrow=classic;html=1;rounded=0;exitX=0;exitY=0.5;exitDx=0;exitDy=0;entryX=1;entryY=0.5;entryDx=0;entryDy=0;entryPerimeter=0;" edge="1" parent="1" source="pqG15x5Y09YBqj7EZCSF-9" target="pqG15x5Y09YBqj7EZCSF-11">
          <mxGeometry width="50" height="50" relative="1" as="geometry">
            <mxPoint x="-560" y="920" as="sourcePoint" />
            <mxPoint x="-510" y="870" as="targetPoint" />
          </mxGeometry>
        </mxCell>
        <mxCell id="uay-iuJrq2O93IIyFjOP-1" style="edgeStyle=orthogonalEdgeStyle;rounded=0;orthogonalLoop=1;jettySize=auto;html=1;" edge="1" parent="1" source="uay-iuJrq2O93IIyFjOP-2" target="uay-iuJrq2O93IIyFjOP-8">
          <mxGeometry relative="1" as="geometry">
            <Array as="points">
              <mxPoint x="213" y="529" />
              <mxPoint x="293" y="529" />
            </Array>
          </mxGeometry>
        </mxCell>
        <mxCell id="uay-iuJrq2O93IIyFjOP-2" value="Single-Page Application&lt;br style=&quot;border-color: var(--border-color);&quot;&gt;[Container: JavaScript and React]&lt;br style=&quot;border-color: var(--border-color);&quot;&gt;Provides users with task and project management via the web" style="rounded=0;whiteSpace=wrap;html=1;" vertex="1" parent="1">
          <mxGeometry x="93" y="389" width="240.5" height="80" as="geometry" />
        </mxCell>
        <mxCell id="uay-iuJrq2O93IIyFjOP-3" value="" style="edgeStyle=orthogonalEdgeStyle;rounded=0;orthogonalLoop=1;jettySize=auto;html=1;" edge="1" parent="1" source="uay-iuJrq2O93IIyFjOP-9" target="uay-iuJrq2O93IIyFjOP-4">
          <mxGeometry relative="1" as="geometry" />
        </mxCell>
        <mxCell id="uay-iuJrq2O93IIyFjOP-4" value="Database&lt;br style=&quot;border-color: var(--border-color);&quot;&gt;[Container: SQL Server]&lt;br style=&quot;border-color: var(--border-color);&quot;&gt;Stores user registration information, hashes authentication credentials and access." style="shape=cylinder3;whiteSpace=wrap;html=1;boundedLbl=1;backgroundOutline=1;size=15;" vertex="1" parent="1">
          <mxGeometry x="8" y="789" width="170" height="130" as="geometry" />
        </mxCell>
        <mxCell id="uay-iuJrq2O93IIyFjOP-5" value="" style="endArrow=classic;html=1;rounded=0;entryX=0.5;entryY=0;entryDx=0;entryDy=0;exitX=0.5;exitY=1;exitDx=0;exitDy=0;" edge="1" parent="1" source="uay-iuJrq2O93IIyFjOP-2" target="uay-iuJrq2O93IIyFjOP-10">
          <mxGeometry width="50" height="50" relative="1" as="geometry">
            <mxPoint x="203" y="469" as="sourcePoint" />
            <mxPoint x="163" y="539" as="targetPoint" />
            <Array as="points">
              <mxPoint x="213" y="529" />
              <mxPoint x="93" y="529" />
            </Array>
          </mxGeometry>
        </mxCell>
        <mxCell id="uay-iuJrq2O93IIyFjOP-6" value="API application" style="swimlane;startSize=20;horizontal=1;containerType=tree;newEdgeStyle={&quot;edgeStyle&quot;:&quot;elbowEdgeStyle&quot;,&quot;startArrow&quot;:&quot;none&quot;,&quot;endArrow&quot;:&quot;none&quot;};" vertex="1" parent="1">
          <mxGeometry x="-27" y="494" width="452.5" height="270" as="geometry" />
        </mxCell>
        <mxCell id="uay-iuJrq2O93IIyFjOP-7" style="edgeStyle=orthogonalEdgeStyle;rounded=0;orthogonalLoop=1;jettySize=auto;html=1;entryX=1;entryY=0.5;entryDx=0;entryDy=0;" edge="1" parent="uay-iuJrq2O93IIyFjOP-6" source="uay-iuJrq2O93IIyFjOP-8" target="uay-iuJrq2O93IIyFjOP-9">
          <mxGeometry relative="1" as="geometry">
            <Array as="points">
              <mxPoint x="330" y="205" />
            </Array>
          </mxGeometry>
        </mxCell>
        <mxCell id="uay-iuJrq2O93IIyFjOP-8" value="Task Controller&lt;br&gt;[Container: RestAPI with .Net Core]&lt;br&gt;&lt;div&gt;Allows users the task management&lt;span style=&quot;background-color: initial;&quot;&gt;&amp;nbsp;functionality with a single use URL&lt;/span&gt;&lt;/div&gt;" style="rounded=0;whiteSpace=wrap;html=1;" vertex="1" parent="uay-iuJrq2O93IIyFjOP-6">
          <mxGeometry x="230" y="57.5" width="180" height="112.5" as="geometry" />
        </mxCell>
        <mxCell id="uay-iuJrq2O93IIyFjOP-9" value="Security Component&lt;br&gt;[Container: Entity Framework]&lt;br&gt;Provides functionality related to signing, changing passwords, etc." style="rounded=0;whiteSpace=wrap;html=1;" vertex="1" parent="uay-iuJrq2O93IIyFjOP-6">
          <mxGeometry x="20" y="165" width="200" height="80" as="geometry" />
        </mxCell>
        <mxCell id="uay-iuJrq2O93IIyFjOP-10" value="Sign in Controller&lt;br&gt;[Container: RestAPI with .Net Core]&lt;br&gt;Allows users to sign in the Task Management&lt;br style=&quot;border-color: var(--border-color);&quot;&gt;System" style="rounded=0;whiteSpace=wrap;html=1;" vertex="1" parent="1">
          <mxGeometry x="10.5" y="551.5" width="165" height="90" as="geometry" />
        </mxCell>
        <mxCell id="uay-iuJrq2O93IIyFjOP-11" value="" style="edgeStyle=orthogonalEdgeStyle;rounded=0;orthogonalLoop=1;jettySize=auto;html=1;" edge="1" parent="1" source="uay-iuJrq2O93IIyFjOP-10" target="uay-iuJrq2O93IIyFjOP-9">
          <mxGeometry relative="1" as="geometry" />
        </mxCell>
        <mxCell id="4q-qv9N7w31q4AmIu49s-1" value="Level 3" style="shape=step;perimeter=stepPerimeter;whiteSpace=wrap;html=1;fixedSize=1;" vertex="1" parent="1">
          <mxGeometry x="-202" y="220" width="210" height="60" as="geometry" />
        </mxCell>
      </root>
    </mxGraphModel>
  </diagram>
</mxfile>
